<?xml version="1.0" encoding="UTF-8"?>
<svg id="Layer_1" data-name="Layer 1" xmlns="http://www.w3.org/2000/svg" viewBox="0 0 550.76 180.11">
  <defs>
    <style>
      .cls-1 {
        fill: #5c3d97;
      }

      .cls-1, .cls-2, .cls-3 {
        stroke-width: 0px;
      }

      .cls-2 {
        fill: #5c3c97;
      }

      .cls-3 {
        fill: #231f20;
      }
    </style>
  </defs>
  <path class="cls-2" d="M91.08,60.97c0,35.41-32.61,56.27-62.44,53.33-2.79,8.37-5.44,16.6-7.93,24.53H1.32c8.67-26,19.69-55.83,28.21-81.83h18.07l-13.37,40.4c18.95,1.32,38.78-13.52,38.78-35.11,0-12.93-12.49-23.65-26.88-23.65-11.02,0-21.3,3.97-29.09,9.55l-8.67-14.54c9.11-6.76,22.18-11.9,38.2-11.9,26.15,0,44.51,18.95,44.51,39.23Z"/>
  <path class="cls-2" d="M158.22,90.64c-9.55,18.07-17.48,36.43-45.54,36.43-14.25,0-26.59-7.64-26.59-23.95,0-19.1,13.07-37.76,33.2-37.76,11.75,0,18.51,8.67,18.51,18.07,0,17.78-20.42,24.97-34.08,21.89,1.18,4.85,5.14,7.64,12.63,7.64,13.96,0,21.74-6.02,32.91-28.79l8.96,6.46ZM104.01,94.91c8.08.29,17.78-4.11,18.07-10.87.15-3.23-1.47-4.85-4.11-4.85-6.46,0-12.05,6.91-13.96,15.72Z"/>
  <path class="cls-2" d="M222.28,90.64c-5.44,12.49-20.13,36.43-35.55,36.43-6.61,0-11.31-4.41-12.34-9.84-3.67,5.73-9.11,9.84-16.6,9.84-10.14,0-16.45-7.93-16.45-21.45,0-19.54,14.1-40.25,30.26-40.25,5.73,0,11.31,3.38,13.52,7.35l2.06-5.88h17.34c-12.49,33.35-16.9,43.93-11.75,43.93s13.96-11.02,21.01-26.59l8.52,6.46ZM181.43,84.33c-2.2-2.2-4.7-3.67-7.79-3.67-8.52,0-14.4,13.22-14.4,23.07,0,4.11,1.62,7.2,5.44,7.2,5.29,0,11.02-8.23,16.75-26.59Z"/>
  <path class="cls-2" d="M286.92,90.64c-9.55,18.07-17.48,36.43-45.54,36.43-11.17,0-18.22-10.28-14.1-24.68,11.31-1.32,21.74-11.46,21.74-18.07,0-2.2-1.76-4.26-4.26-4.26-12.05,0-22.33,24.39-28.5,45.39l-17.19.15c10.58-30.85,21.3-61.7,31.88-92.55h18.51c-5.29,13.22-12.05,30.7-17.19,44.07,5.14-7.35,12.78-11.75,19.39-11.75,9.26,0,14.84,6.32,14.84,14.84,0,14.98-14.54,26.59-27.62,28.21,1.03,2.79,2.06,4.55,6.17,4.55,13.96,0,21.74-6.02,32.91-28.79l8.96,6.46Z"/>
  <path class="cls-3" d="M352.44,40.84h-28.79c-11.61,32.61-22.77,65.38-33.5,97.99h-19.1c11.17-32.61,22.18-65.38,33.64-97.99h-28.5l5.73-16.6h76.25l-5.73,16.6Z"/>
  <path class="cls-3" d="M401.8,90.64c-5.44,12.49-20.13,36.43-35.55,36.43-9.4,0-14.4-6.76-14.4-14.25,0-8.67,3.97-16.75,9.84-29.09-2.94-.15-6.02-.59-8.96-1.47-6.46,17.78-15.72,34.23-23.65,44.81l-11.46-8.23c11.17-14.69,22.33-38.93,25.27-57.44h15.72c-.44,2.06-.88,4.26-1.47,6.32,6.76,1.76,20.71,2.35,26.88,2.35-5.73,12.05-14.25,32.03-14.25,37.9,0,1.76,1.03,2.79,2.5,2.79,5.29,0,13.96-11.02,21.01-26.59l8.52,6.46Z"/>
  <path class="cls-3" d="M466.44,90.64c-5.44,12.49-20.13,36.43-35.55,36.43-6.61,0-11.31-4.41-12.34-9.84-3.67,5.73-9.11,9.84-16.6,9.84-10.14,0-16.45-7.93-16.45-21.45,0-19.54,14.1-40.25,30.26-40.25,5.73,0,11.31,3.38,13.52,7.35l2.06-5.88h17.34c-12.49,33.35-16.89,43.93-11.75,43.93s13.96-11.02,21.01-26.59l8.52,6.46ZM425.6,84.33c-2.2-2.2-4.7-3.67-7.79-3.67-8.52,0-14.4,13.22-14.4,23.07,0,4.11,1.62,7.2,5.44,7.2,5.29,0,11.02-8.23,16.75-26.59Z"/>
  <path class="cls-3" d="M499.93,90.64c-5.44,12.49-20.13,36.43-35.55,36.43-23.21,0-12.78-28.06-.88-60.23h17.63c-9.25,25.12-17.78,43.93-10.72,43.93,5.29,0,13.96-11.02,21.01-26.59l8.52,6.46ZM467.02,51.12c0-7.64,6.46-14.98,13.66-14.98,5,0,8.67,3.67,8.67,8.67,0,7.35-6.61,15.13-13.66,15.13-5.44,0-8.67-3.67-8.67-8.81Z"/>
  <path class="cls-3" d="M517.12,97.4l9.25,9.4c-4.55,8.23-17.04,20.27-29.53,20.27-14.69,0-16.89-11.61-8.23-38.64,4.55-14.1,12.78-35.99,19.98-55.39h17.92c-9.26,23.8-17.19,45.98-21.3,58.18-5.29,15.57-6.02,19.54-2.35,19.54,2.94,0,9.26-6.32,14.25-13.37Z"/>
  <path class="cls-1" d="M527.99,118.26c0-7.05,6.17-13.52,12.34-13.37,5,.15,8.23,3.38,8.23,8.52,0,7.05-6.61,13.22-12.78,13.22-4.85,0-7.79-3.38-7.79-8.37Z"/>
</svg>