<?xml version="1.0" encoding="UTF-8"?>
<svg id="Layer_1" data-name="Layer 1" xmlns="http://www.w3.org/2000/svg" viewBox="0 0 547.24 180.11">
  <defs>
    <style>
      .cls-1 {
        fill: #2faf5a;
      }

      .cls-1, .cls-2 {
        stroke-width: 0px;
      }

      .cls-2 {
        fill: #231f20;
      }
    </style>
  </defs>
  <path class="cls-2" d="M90.94,60.09c0,34.96-32.61,56.12-63.47,53.48-2.79,8.52-5.58,17.04-8.08,25.27H2.5c8.81-26.88,19.69-56.56,28.79-83.45h15.72c-4.7,13.96-9.7,28.65-14.54,43.34,21.01,1.47,42.75-13.96,42.75-37.46,0-14.1-12.78-24.68-27.77-24.68-11.17,0-21.89,4.11-29.68,9.7l-7.49-12.78c8.96-6.61,22.33-11.61,37.61-11.61,25.27.15,43.05,18.07,43.05,38.2Z"/>
  <path class="cls-2" d="M155.87,93.44c-8.52,16.9-17.63,33.64-43.34,33.64-14.54,0-25.86-8.23-25.86-23.51,0-19.25,12.93-37.61,32.03-37.61,11.61,0,17.78,8.52,17.78,17.34,0,17.48-19.69,25.27-34.52,21.89,1.03,5.88,5.29,9.4,13.81,9.4,14.25,0,22.92-7.49,33.35-28.35l6.76,7.2ZM102.25,95.93c9.4,1.03,20.27-3.97,20.42-12.05.15-3.38-1.76-5.73-5-5.73-7.35,0-13.52,7.93-15.43,17.78Z"/>
  <path class="cls-2" d="M220.07,93.44c-5.58,12.49-19.39,33.64-33.5,33.64-7.05,0-11.02-4.85-11.9-9.84-3.23,5.14-8.52,9.84-16.75,9.84-10.14,0-16.6-8.38-16.6-21.3,0-19.69,13.66-39.81,30.26-39.81,5.88,0,11.61,3.67,13.81,7.64l2.06-6.17h14.99c-12.93,35.26-16.75,45.54-11.17,45.54s14.84-11.17,22.33-26.59l6.46,7.05ZM181.88,84.18c-1.91-2.79-5.14-4.85-8.81-4.85-9.7,0-16.16,13.66-16.16,24.98,0,4.7,2.06,8.67,6.76,8.67,6.46,0,12.34-9.4,18.22-28.79Z"/>
  <path class="cls-2" d="M273.7,112.53c-6.9,7.64-18.66,14.54-32.17,14.54-12.63,0-19.83-10.72-16.01-24.98,12.49-.73,23.8-11.17,23.8-18.36,0-2.64-1.91-4.85-5-4.85-13.08,0-23.8,25.12-30.12,46.57l-14.84.15c10.28-30.7,20.86-61.41,31.44-92.26h16.01c-5.29,13.66-12.05,31.59-17.19,45.25,5.14-7.35,12.93-12.63,20.27-12.63,8.81,0,14.54,6.17,14.54,14.4,0,14.4-13.96,26.15-28.65,27.77.88,3.97,3.82,6.46,8.96,6.46,8.37,0,17.48-7.2,22.77-12.34l6.17,10.28Z"/>
  <path class="cls-1" d="M348.91,40.84h-28.79c-11.61,32.61-22.77,65.38-33.5,97.99h-19.1c11.17-32.61,22.18-65.38,33.64-97.99h-28.5l5.73-16.6h76.25l-5.73,16.6Z"/>
  <path class="cls-1" d="M398.27,90.64c-5.44,12.49-20.13,36.43-35.55,36.43-9.4,0-14.4-6.76-14.4-14.25,0-8.67,3.97-16.75,9.84-29.09-2.94-.15-6.02-.59-8.96-1.47-6.46,17.78-15.72,34.23-23.65,44.81l-11.46-8.23c11.17-14.69,22.33-38.93,25.27-57.44h15.72c-.44,2.06-.88,4.26-1.47,6.32,6.76,1.76,20.71,2.35,26.88,2.35-5.73,12.05-14.25,32.03-14.25,37.9,0,1.76,1.03,2.79,2.5,2.79,5.29,0,13.96-11.02,21.01-26.59l8.52,6.46Z"/>
  <path class="cls-1" d="M462.92,90.64c-5.44,12.49-20.13,36.43-35.55,36.43-6.61,0-11.31-4.41-12.34-9.84-3.67,5.73-9.11,9.84-16.6,9.84-10.14,0-16.45-7.93-16.45-21.45,0-19.54,14.1-40.25,30.26-40.25,5.73,0,11.31,3.38,13.52,7.35l2.06-5.88h17.34c-12.49,33.35-16.89,43.93-11.75,43.93s13.96-11.02,21.01-26.59l8.52,6.46ZM422.07,84.33c-2.2-2.2-4.7-3.67-7.79-3.67-8.52,0-14.4,13.22-14.4,23.07,0,4.11,1.62,7.2,5.44,7.2,5.29,0,11.02-8.23,16.75-26.59Z"/>
  <path class="cls-1" d="M496.41,90.64c-5.44,12.49-20.13,36.43-35.55,36.43-23.21,0-12.78-28.06-.88-60.23h17.63c-9.25,25.12-17.78,43.93-10.72,43.93,5.29,0,13.96-11.02,21.01-26.59l8.52,6.46ZM463.5,51.12c0-7.64,6.46-14.98,13.66-14.98,5,0,8.67,3.67,8.67,8.67,0,7.35-6.61,15.13-13.66,15.13-5.44,0-8.67-3.67-8.67-8.81Z"/>
  <path class="cls-1" d="M513.6,97.4l9.25,9.4c-4.55,8.23-17.04,20.27-29.53,20.27-14.69,0-16.89-11.61-8.23-38.64,4.55-14.1,12.78-35.99,19.98-55.39h17.92c-9.26,23.8-17.19,45.98-21.3,58.18-5.29,15.57-6.02,19.54-2.35,19.54,2.94,0,9.26-6.32,14.25-13.37Z"/>
  <path class="cls-1" d="M524.47,118.26c0-7.05,6.17-13.52,12.34-13.37,5,.15,8.23,3.38,8.23,8.52,0,7.05-6.61,13.22-12.78,13.22-4.85,0-7.79-3.38-7.79-8.37Z"/>
</svg>